<svg width="35" height="35" viewBox="0 0 35 35" fill="none" xmlns="http://www.w3.org/2000/svg">
<path d="M32.5 16C32.5 16 32.5 25 26.5 29C20.5 33 9 29.5 9 29.5L32.5 16Z" fill="#6366F1" fill-opacity="0.3"/>
<path d="M18.5 32C26.5081 32 33 25.5081 33 17.5C33 9.49187 26.5081 3 18.5 3C10.4919 3 4 9.49187 4 17.5C4 25.5081 10.4919 32 18.5 32Z" stroke="#6366F1" stroke-width="2"/>
<path d="M13.8184 31.3218L32.8709 20.3218" stroke="#6366F1"/>
<path d="M4.31836 14.8674L23.3709 3.86743" stroke="#6366F1"/>
<path d="M9.65332 29.1077L26.9738 19.1077" stroke="#6366F1" stroke-linecap="round" stroke-linejoin="round"/>
<path d="M10.2158 16.0815L27.5363 6.08154" stroke="#6366F1" stroke-linecap="round"/>
<path d="M14.2334 14.2297L23.5099 21.1077" stroke="#6366F1" stroke-linecap="round" stroke-linejoin="round"/>
<path d="M10 16L19.2763 22.8776" stroke="#6366F1" stroke-linecap="round" stroke-linejoin="round"/>
<path fill-rule="evenodd" clip-rule="evenodd" d="M17.5003 11C12.8333 11 9.91711 13.3335 8.74983 18.0005C10.5001 15.667 12.5418 14.7921 14.875 15.3751C16.2062 15.7077 17.1581 16.6736 18.2109 17.7431C19.9268 19.4846 21.913 21.5 26.2502 21.5C30.9166 21.5 33.8334 19.1665 35 14.5002C33.2504 16.8337 31.2087 17.7086 28.8755 17.1249C27.5436 16.7923 26.5917 15.8264 25.539 14.7576C23.823 13.0147 21.8375 11 17.5003 11ZM8.74983 21.5C4.08344 21.5 1.1666 23.8335 0 28.5005C1.75024 26.167 3.79196 25.2921 6.12447 25.8751C7.45635 26.2077 8.40828 27.1736 9.46103 28.2431C11.177 29.9846 13.1625 32 17.5003 32C22.1667 32 25.0836 29.6672 26.2502 25.0002C24.4999 27.3337 22.4582 28.2086 20.125 27.6256C18.7938 27.2923 17.8419 26.3264 16.7891 25.2576C15.0732 23.5161 13.087 21.5 8.74983 21.5V21.5Z" fill="#6366F1"/>
</svg>
